<mxfile host="app.diagrams.net" modified="2023-07-08T10:42:43.210Z" agent="Mozilla/5.0 (X11; Linux x86_64; rv:109.0) Gecko/20100101 Firefox/115.0" version="21.6.1" etag="LPQlAA2hmIKwJ_2TtDtR" type="github">
  <diagram name="Page-1" id="_ROoWl5RF9Olz2of1nsk">
    <mxGraphModel>
      <root>
        <mxCell id="0" />
        <mxCell id="1" parent="0" />
      </root>
    </mxGraphModel>
  </diagram>
</mxfile>
